<?xml version='1.0' encoding='UTF-8'?>
<!DOCTYPE svg PUBLIC "-//W3C//DTD SVG 1.1//EN" "http://www.w3.org/Graphics/SVG/1.1/DTD/svg11.dtd">
<!-- Created with matplotlib (http://matplotlib.org/) -->
<svg xmlns="http://www.w3.org/2000/svg" xmlns:xlink="http://www.w3.org/1999/xlink" height="400px" version="1.1" viewBox="0 0 600 400" width="600px">
  <title>mplwp_legendreP05.svg</title>
  <desc>http://commons.wikimedia.org/wiki/File:mplwp_legendreP05.svg
Plot created with mplwp, the Matplotlib extension for Wikipedia plots.</desc>
  <defs>
    <style type="text/css">
*{stroke-linecap:square;stroke-linejoin:round;}
  </style>
  </defs>
  <defs>
    <clipPath id="pa82c4e93f3">
      <rect height="355.0" width="515.0" x="42.5" y="18.5"/>
    </clipPath>
  </defs>
  <g id="figure_1">
    <g id="patch_1">
      <path d="
M 0 400
L 600 400
L 600 0
L 0 0
z 
" style="fill:#ffffff;"/>
    </g>
    <g id="axes_1">
      <g id="patch_2">
        <path d="
M 42.5 373.5
L 557.5 373.5
L 557.5 18.5
L 42.5 18.5
z 
" style="fill:#ffffff;"/>
      </g>
      <g id="line2d_1">
        <path clip-path="url(#pa82c4e93f3)" d="
M 42.5 48.0833
L 557.5 48.0833
L 557.5 48.0833" style="fill:none;stroke:#0000cc;stroke-width:2.4;"/>
      </g>
      <g id="line2d_2">
        <path clip-path="url(#pa82c4e93f3)" d="
M 42.5 343.917
L 557.5 48.0833
L 557.5 48.0833" style="fill:none;stroke:#dd00aa;stroke-width:2.4;"/>
      </g>
      <g id="line2d_3">
        <path clip-path="url(#pa82c4e93f3)" d="
M 42.5 48.0833
L 50.637 61.8843
L 58.671 75.0758
L 66.602 87.6745
L 74.43 99.6968
L 82.155 111.159
L 89.777 122.077
L 97.296 132.466
L 104.815 142.477
L 112.231 151.98
L 119.544 160.991
L 126.754 169.524
L 133.861 177.596
L 140.865 185.219
L 147.869 192.514
L 154.77 199.381
L 161.568 205.833
L 168.263 211.886
L 174.958 217.639
L 181.55 223.01
L 188.039 228.013
L 194.528 232.734
L 200.914 237.105
L 207.197 241.139
L 213.48 244.91
L 219.66 248.36
L 225.84 251.555
L 231.917 254.448
L 237.994 257.093
L 243.968 259.453
L 249.942 261.573
L 255.813 263.425
L 261.684 265.046
L 267.555 266.436
L 273.426 267.595
L 279.194 268.51
L 284.962 269.202
L 290.73 269.671
L 296.498 269.917
L 302.266 269.941
L 308.034 269.742
L 313.802 269.321
L 319.57 268.677
L 325.338 267.81
L 331.106 266.721
L 336.977 265.383
L 342.848 263.815
L 348.719 262.016
L 354.59 259.986
L 360.564 257.684
L 366.538 255.144
L 372.615 252.314
L 378.692 249.237
L 384.769 245.913
L 390.949 242.279
L 397.232 238.323
L 403.515 234.102
L 409.901 229.542
L 416.287 224.709
L 422.776 219.518
L 429.368 213.956
L 435.96 208.103
L 442.655 201.861
L 449.453 195.217
L 456.354 188.155
L 463.255 180.774
L 470.259 172.958
L 477.366 164.691
L 484.576 155.958
L 491.889 146.746
L 499.202 137.176
L 506.618 127.105
L 514.137 116.519
L 521.759 105.401
L 529.484 93.7369
L 537.312 81.5096
L 545.243 68.7031
L 553.277 55.3012
L 557.5 48.0833
L 557.5 48.0833" style="fill:none;stroke:#bbbb00;stroke-width:2.4;"/>
      </g>
      <g id="line2d_4">
        <path clip-path="url(#pa82c4e93f3)" d="
M 42.5 343.917
L 47.444 327.283
L 52.285 311.773
L 57.023 297.324
L 61.761 283.584
L 66.396 270.815
L 71.031 258.698
L 75.563 247.469
L 79.992 237.073
L 84.421 227.239
L 88.747 218.164
L 93.073 209.602
L 97.296 201.73
L 101.519 194.328
L 105.639 187.549
L 109.759 181.199
L 113.776 175.413
L 117.793 170.016
L 121.707 165.126
L 125.621 160.59
L 129.432 156.508
L 133.243 152.747
L 137.054 149.301
L 140.762 146.244
L 144.47 143.471
L 148.178 140.976
L 151.886 138.752
L 155.491 136.843
L 159.096 135.179
L 162.701 133.753
L 166.409 132.528
L 170.117 131.541
L 173.825 130.787
L 177.533 130.258
L 181.344 129.942
L 185.155 129.85
L 189.069 129.982
L 192.983 130.334
L 197 130.917
L 201.12 131.739
L 205.343 132.808
L 209.669 134.13
L 214.201 135.751
L 218.836 137.645
L 223.677 139.865
L 228.724 142.428
L 233.977 145.344
L 239.539 148.691
L 245.41 152.486
L 251.693 156.818
L 258.491 161.783
L 265.907 167.482
L 274.25 174.182
L 284.138 182.419
L 298.352 194.58
L 319.055 212.269
L 329.046 220.497
L 337.389 227.084
L 344.702 232.583
L 351.397 237.346
L 357.577 241.477
L 363.448 245.138
L 369.01 248.344
L 374.263 251.118
L 379.31 253.533
L 384.151 255.602
L 388.786 257.344
L 393.215 258.777
L 397.541 259.947
L 401.764 260.86
L 405.884 261.524
L 409.901 261.947
L 413.815 262.137
L 417.626 262.104
L 421.437 261.85
L 425.145 261.382
L 428.853 260.691
L 432.561 259.77
L 436.166 258.647
L 439.771 257.294
L 443.376 255.706
L 446.981 253.875
L 450.586 251.796
L 454.191 249.462
L 457.796 246.868
L 461.504 243.922
L 465.212 240.687
L 468.92 237.158
L 472.731 233.215
L 476.542 228.947
L 480.353 224.345
L 484.267 219.265
L 488.181 213.818
L 492.198 207.837
L 496.215 201.454
L 500.335 194.48
L 504.455 187.064
L 508.678 178.994
L 512.901 170.44
L 517.227 161.167
L 521.553 151.365
L 525.982 140.771
L 530.411 129.601
L 534.943 117.564
L 539.475 104.899
L 544.11 91.2856
L 548.848 76.6649
L 553.586 61.3183
L 557.5 48.0833
L 557.5 48.0833" style="fill:none;stroke:#00bb00;stroke-width:2.4;"/>
      </g>
      <g id="line2d_5">
        <path clip-path="url(#pa82c4e93f3)" d="
M 42.5 48.0833
L 46.105 68.1464
L 49.71 86.9472
L 53.212 104.042
L 56.714 120.022
L 60.113 134.502
L 63.409 147.606
L 66.705 159.817
L 69.898 170.824
L 73.091 181.048
L 76.181 190.222
L 79.271 198.71
L 82.258 206.286
L 85.245 213.265
L 88.129 219.454
L 91.013 225.123
L 93.794 230.113
L 96.575 234.652
L 99.253 238.611
L 101.931 242.179
L 104.506 245.254
L 107.081 247.992
L 109.656 250.406
L 112.128 252.428
L 114.6 254.171
L 117.072 255.645
L 119.544 256.861
L 122.016 257.827
L 124.488 258.554
L 126.96 259.05
L 129.432 259.325
L 132.007 259.387
L 134.582 259.229
L 137.26 258.843
L 140.041 258.214
L 142.925 257.329
L 145.912 256.177
L 149.002 254.75
L 152.298 252.979
L 155.8 250.839
L 159.508 248.306
L 163.422 245.362
L 167.645 241.908
L 172.28 237.826
L 177.43 232.988
L 183.301 227.159
L 190.408 219.772
L 200.502 208.923
L 217.394 190.762
L 225.119 182.81
L 231.608 176.44
L 237.479 170.982
L 242.938 166.21
L 247.985 162.087
L 252.826 158.419
L 257.461 155.187
L 261.89 152.371
L 266.113 149.944
L 270.233 147.828
L 274.25 146.013
L 278.164 144.487
L 281.975 143.234
L 285.786 142.215
L 289.494 141.453
L 293.202 140.918
L 296.91 140.611
L 300.515 140.533
L 304.12 140.673
L 307.725 141.03
L 311.433 141.622
L 315.141 142.441
L 318.849 143.485
L 322.66 144.788
L 326.574 146.365
L 330.591 148.231
L 334.711 150.397
L 338.934 152.874
L 343.26 155.671
L 347.792 158.871
L 352.53 162.494
L 357.474 166.559
L 362.727 171.168
L 368.392 176.44
L 374.572 182.5
L 381.679 189.79
L 390.537 199.213
L 414.948 225.368
L 421.437 231.887
L 426.999 237.167
L 431.943 241.557
L 436.372 245.2
L 440.492 248.306
L 444.303 250.905
L 447.908 253.097
L 451.307 254.903
L 454.5 256.35
L 457.59 257.504
L 460.474 258.347
L 463.255 258.934
L 465.933 259.278
L 468.508 259.393
L 471.083 259.286
L 473.555 258.965
L 476.027 258.422
L 478.499 257.646
L 480.971 256.629
L 483.443 255.36
L 485.915 253.83
L 488.387 252.03
L 490.859 249.949
L 493.331 247.576
L 495.906 244.785
L 498.481 241.655
L 501.056 238.174
L 503.734 234.169
L 506.412 229.759
L 509.193 224.735
L 511.974 219.242
L 514.858 213.034
L 517.742 206.286
L 520.729 198.71
L 523.716 190.516
L 526.806 181.365
L 529.896 171.507
L 533.089 160.551
L 536.282 148.788
L 539.578 135.769
L 542.874 121.83
L 546.273 106.461
L 549.672 90.0465
L 553.174 72.0062
L 556.676 52.7827
L 557.5 48.0833
L 557.5 48.0833" style="fill:none;stroke:#00bbcc;stroke-width:2.4;"/>
      </g>
      <g id="line2d_6">
        <path clip-path="url(#pa82c4e93f3)" d="
M 42.5 343.917
L 45.384 320.026
L 48.268 297.998
L 51.049 278.442
L 53.83 260.466
L 56.508 244.581
L 59.186 230.034
L 61.761 217.249
L 64.336 205.592
L 66.808 195.412
L 69.28 186.18
L 71.649 178.18
L 73.915 171.27
L 76.181 165.053
L 78.344 159.737
L 80.507 154.997
L 82.567 150.996
L 84.627 147.473
L 86.584 144.55
L 88.541 142.021
L 90.395 139.973
L 92.249 138.248
L 94.103 136.834
L 95.854 135.769
L 97.605 134.957
L 99.356 134.385
L 101.107 134.043
L 102.858 133.92
L 104.712 134.018
L 106.566 134.336
L 108.523 134.9
L 110.583 135.73
L 112.746 136.847
L 115.012 138.268
L 117.484 140.087
L 120.162 142.347
L 123.046 145.085
L 126.136 148.327
L 129.638 152.334
L 133.552 157.163
L 138.084 163.118
L 143.749 170.945
L 153.328 184.632
L 162.701 197.883
L 168.675 205.949
L 173.722 212.405
L 178.357 217.977
L 182.58 222.714
L 186.597 226.888
L 190.408 230.526
L 194.013 233.665
L 197.515 236.419
L 200.914 238.805
L 204.21 240.842
L 207.403 242.553
L 210.493 243.958
L 213.583 245.115
L 216.57 245.997
L 219.557 246.648
L 222.544 247.068
L 225.531 247.259
L 228.518 247.223
L 231.505 246.965
L 234.492 246.488
L 237.582 245.769
L 240.775 244.791
L 243.968 243.583
L 247.264 242.102
L 250.766 240.279
L 254.371 238.147
L 258.182 235.629
L 262.199 232.699
L 266.422 229.34
L 270.954 225.448
L 275.898 220.906
L 281.46 215.488
L 288.052 208.74
L 297.013 199.215
L 313.596 181.546
L 320.291 174.775
L 325.956 169.357
L 330.9 164.926
L 335.432 161.152
L 339.655 157.915
L 343.672 155.113
L 347.483 152.725
L 351.088 150.725
L 354.59 149.036
L 357.886 147.688
L 361.079 146.612
L 364.272 145.773
L 367.362 145.19
L 370.349 144.849
L 373.336 144.728
L 376.323 144.833
L 379.31 145.166
L 382.297 145.729
L 385.284 146.523
L 388.271 147.55
L 391.258 148.808
L 394.348 150.353
L 397.541 152.206
L 400.734 154.316
L 404.03 156.76
L 407.429 159.554
L 411.034 162.812
L 414.742 166.466
L 418.656 170.637
L 422.879 175.472
L 427.411 181.011
L 432.355 187.412
L 438.123 195.259
L 445.642 205.892
L 460.165 226.5
L 465.418 233.514
L 469.744 238.926
L 473.452 243.219
L 476.748 246.709
L 479.735 249.56
L 482.516 251.913
L 485.091 253.802
L 487.46 255.27
L 489.726 256.409
L 491.786 257.204
L 493.743 257.732
L 495.597 258.014
L 497.451 258.073
L 499.202 257.913
L 500.953 257.531
L 502.704 256.918
L 504.455 256.062
L 506.206 254.951
L 507.957 253.576
L 509.708 251.922
L 511.562 249.856
L 513.416 247.45
L 515.373 244.527
L 517.33 241.191
L 519.39 237.214
L 521.45 232.739
L 523.613 227.479
L 525.776 221.618
L 528.042 214.804
L 530.308 207.27
L 532.677 198.588
L 535.046 189.044
L 537.518 178.126
L 539.99 166.183
L 542.565 152.602
L 545.14 137.806
L 547.818 121.068
L 550.496 102.893
L 553.277 82.4274
L 556.058 60.2666
L 557.5 48.0833
L 557.5 48.0833" style="fill:none;stroke:#dd4400;stroke-width:2.4;"/>
      </g>
      <g id="matplotlib.axis_1">
        <g id="xtick_1">
          <g id="line2d_7">
            <path clip-path="url(#pa82c4e93f3)" d="
M 42.5 373.5
L 42.5 18.5" style="fill:none;stroke:#000000;stroke-dasharray:1.000000,3.000000;stroke-dashoffset:0.0;stroke-linecap:butt;stroke-width:0.5;"/>
          </g>
          <g id="line2d_8">
            <defs>
              <path d="
M 0 0
L 0 -4" id="ma222041d45" style="stroke:#000000;stroke-linecap:butt;stroke-width:1.25;"/>
            </defs>
            <g>
              <use style="stroke:#000000;stroke-linecap:butt;stroke-width:1.25;" x="42.5" xlink:href="#ma222041d45" y="373.5"/>
            </g>
          </g>
          <g id="line2d_9">
            <defs>
              <path d="
M 0 0
L 0 4" id="mab2f347831" style="stroke:#000000;stroke-linecap:butt;stroke-width:1.25;"/>
            </defs>
            <g>
              <use style="stroke:#000000;stroke-linecap:butt;stroke-width:1.25;" x="42.5" xlink:href="#mab2f347831" y="18.5"/>
            </g>
          </g>
          <g id="text_1">
            <!-- −1.0 -->
            <defs>
              <path d="
M 12.4062 8.29688
L 28.5156 8.29688
L 28.5156 63.9219
L 10.9844 60.4062
L 10.9844 69.3906
L 28.4219 72.9062
L 38.2812 72.9062
L 38.2812 8.29688
L 54.3906 8.29688
L 54.3906 0
L 12.4062 0
z 
" id="DejaVuSans-31"/>
              <path d="
M 31.7812 66.4062
Q 24.1719 66.4062 20.3281 58.9062
Q 16.5 51.4219 16.5 36.375
Q 16.5 21.3906 20.3281 13.8906
Q 24.1719 6.39062 31.7812 6.39062
Q 39.4531 6.39062 43.2812 13.8906
Q 47.125 21.3906 47.125 36.375
Q 47.125 51.4219 43.2812 58.9062
Q 39.4531 66.4062 31.7812 66.4062
M 31.7812 74.2188
Q 44.0469 74.2188 50.5156 64.5156
Q 56.9844 54.8281 56.9844 36.375
Q 56.9844 17.9688 50.5156 8.26562
Q 44.0469 -1.42188 31.7812 -1.42188
Q 19.5312 -1.42188 13.0625 8.26562
Q 6.59375 17.9688 6.59375 36.375
Q 6.59375 54.8281 13.0625 64.5156
Q 19.5312 74.2188 31.7812 74.2188" id="DejaVuSans-30"/>
              <path d="
M 10.6875 12.4062
L 21 12.4062
L 21 0
L 10.6875 0
z 
" id="DejaVuSans-2e"/>
              <path d="
M 10.5938 35.5
L 73.1875 35.5
L 73.1875 27.2031
L 10.5938 27.2031
z 
" id="DejaVuSans-2212"/>
            </defs>
            <g transform="translate(24.4525 392.375)scale(0.16 -0.16)">
              <use xlink:href="#DejaVuSans-2212"/>
              <use x="83.7890625" xlink:href="#DejaVuSans-31"/>
              <use x="147.412109375" xlink:href="#DejaVuSans-2e"/>
              <use x="179.19921875" xlink:href="#DejaVuSans-30"/>
            </g>
          </g>
        </g>
        <g id="xtick_2">
          <g id="line2d_10">
            <path clip-path="url(#pa82c4e93f3)" d="
M 171.25 373.5
L 171.25 18.5" style="fill:none;stroke:#000000;stroke-dasharray:1.000000,3.000000;stroke-dashoffset:0.0;stroke-linecap:butt;stroke-width:0.5;"/>
          </g>
          <g id="line2d_11">
            <g>
              <use style="stroke:#000000;stroke-linecap:butt;stroke-width:1.25;" x="171.25" xlink:href="#ma222041d45" y="373.5"/>
            </g>
          </g>
          <g id="line2d_12">
            <g>
              <use style="stroke:#000000;stroke-linecap:butt;stroke-width:1.25;" x="171.25" xlink:href="#mab2f347831" y="18.5"/>
            </g>
          </g>
          <g id="text_2">
            <!-- −0.5 -->
            <defs>
              <path d="
M 10.7969 72.9062
L 49.5156 72.9062
L 49.5156 64.5938
L 19.8281 64.5938
L 19.8281 46.7344
Q 21.9688 47.4688 24.1094 47.8281
Q 26.2656 48.1875 28.4219 48.1875
Q 40.625 48.1875 47.75 41.5
Q 54.8906 34.8125 54.8906 23.3906
Q 54.8906 11.625 47.5625 5.09375
Q 40.2344 -1.42188 26.9062 -1.42188
Q 22.3125 -1.42188 17.5469 -0.640625
Q 12.7969 0.140625 7.71875 1.70312
L 7.71875 11.625
Q 12.1094 9.23438 16.7969 8.0625
Q 21.4844 6.89062 26.7031 6.89062
Q 35.1562 6.89062 40.0781 11.3281
Q 45.0156 15.7656 45.0156 23.3906
Q 45.0156 31 40.0781 35.4375
Q 35.1562 39.8906 26.7031 39.8906
Q 22.75 39.8906 18.8125 39.0156
Q 14.8906 38.1406 10.7969 36.2812
z 
" id="DejaVuSans-35"/>
            </defs>
            <g transform="translate(153.37 392.375)scale(0.16 -0.16)">
              <use xlink:href="#DejaVuSans-2212"/>
              <use x="83.7890625" xlink:href="#DejaVuSans-30"/>
              <use x="147.412109375" xlink:href="#DejaVuSans-2e"/>
              <use x="179.19921875" xlink:href="#DejaVuSans-35"/>
            </g>
          </g>
        </g>
        <g id="xtick_3">
          <g id="line2d_13">
            <path clip-path="url(#pa82c4e93f3)" d="
M 300 373.5
L 300 18.5" style="fill:none;stroke:#000000;stroke-dasharray:3.000000,1.000000;stroke-dashoffset:0.0;stroke-linecap:butt;stroke-width:0.5;"/>
          </g>
          <g id="line2d_14">
            <g>
              <use style="stroke:#000000;stroke-linecap:butt;stroke-width:1.25;" x="300.0" xlink:href="#ma222041d45" y="373.5"/>
            </g>
          </g>
          <g id="line2d_15">
            <g>
              <use style="stroke:#000000;stroke-linecap:butt;stroke-width:1.25;" x="300.0" xlink:href="#mab2f347831" y="18.5"/>
            </g>
          </g>
          <g id="text_3">
            <!-- 0.0 -->
            <g transform="translate(288.33625 392.375)scale(0.16 -0.16)">
              <use xlink:href="#DejaVuSans-30"/>
              <use x="63.623046875" xlink:href="#DejaVuSans-2e"/>
              <use x="95.41015625" xlink:href="#DejaVuSans-30"/>
            </g>
          </g>
        </g>
        <g id="xtick_4">
          <g id="line2d_16">
            <path clip-path="url(#pa82c4e93f3)" d="
M 428.75 373.5
L 428.75 18.5" style="fill:none;stroke:#000000;stroke-dasharray:1.000000,3.000000;stroke-dashoffset:0.0;stroke-linecap:butt;stroke-width:0.5;"/>
          </g>
          <g id="line2d_17">
            <g>
              <use style="stroke:#000000;stroke-linecap:butt;stroke-width:1.25;" x="428.75" xlink:href="#ma222041d45" y="373.5"/>
            </g>
          </g>
          <g id="line2d_18">
            <g>
              <use style="stroke:#000000;stroke-linecap:butt;stroke-width:1.25;" x="428.75" xlink:href="#mab2f347831" y="18.5"/>
            </g>
          </g>
          <g id="text_4">
            <!-- 0.5 -->
            <g transform="translate(417.25375 392.375)scale(0.16 -0.16)">
              <use xlink:href="#DejaVuSans-30"/>
              <use x="63.623046875" xlink:href="#DejaVuSans-2e"/>
              <use x="95.41015625" xlink:href="#DejaVuSans-35"/>
            </g>
          </g>
        </g>
        <g id="xtick_5">
          <g id="line2d_19">
            <path clip-path="url(#pa82c4e93f3)" d="
M 557.5 373.5
L 557.5 18.5" style="fill:none;stroke:#000000;stroke-dasharray:1.000000,3.000000;stroke-dashoffset:0.0;stroke-linecap:butt;stroke-width:0.5;"/>
          </g>
          <g id="line2d_20">
            <g>
              <use style="stroke:#000000;stroke-linecap:butt;stroke-width:1.25;" x="557.5" xlink:href="#ma222041d45" y="373.5"/>
            </g>
          </g>
          <g id="line2d_21">
            <g>
              <use style="stroke:#000000;stroke-linecap:butt;stroke-width:1.25;" x="557.5" xlink:href="#mab2f347831" y="18.5"/>
            </g>
          </g>
          <g id="text_5">
            <!-- 1.0 -->
            <g transform="translate(546.1875 392.375)scale(0.16 -0.16)">
              <use xlink:href="#DejaVuSans-31"/>
              <use x="63.623046875" xlink:href="#DejaVuSans-2e"/>
              <use x="95.41015625" xlink:href="#DejaVuSans-30"/>
            </g>
          </g>
        </g>
      </g>
      <g id="matplotlib.axis_2">
        <g id="ytick_1">
          <g id="line2d_22">
            <path clip-path="url(#pa82c4e93f3)" d="
M 42.5 343.917
L 557.5 343.917" style="fill:none;stroke:#000000;stroke-dasharray:1.000000,3.000000;stroke-dashoffset:0.0;stroke-linecap:butt;stroke-width:0.5;"/>
          </g>
          <g id="line2d_23">
            <defs>
              <path d="
M 0 0
L 4 0" id="m1eb0c910b5" style="stroke:#000000;stroke-linecap:butt;stroke-width:1.25;"/>
            </defs>
            <g>
              <use style="stroke:#000000;stroke-linecap:butt;stroke-width:1.25;" x="42.5" xlink:href="#m1eb0c910b5" y="343.916666667"/>
            </g>
          </g>
          <g id="line2d_24">
            <defs>
              <path d="
M 0 0
L -4 0" id="mb63a56c30e" style="stroke:#000000;stroke-linecap:butt;stroke-width:1.25;"/>
            </defs>
            <g>
              <use style="stroke:#000000;stroke-linecap:butt;stroke-width:1.25;" x="557.5" xlink:href="#mb63a56c30e" y="343.916666667"/>
            </g>
          </g>
          <g id="text_6">
            <!-- −1.0 -->
            <g transform="translate(-0.595 349.740416667)scale(0.16 -0.16)">
              <use xlink:href="#DejaVuSans-2212"/>
              <use x="83.7890625" xlink:href="#DejaVuSans-31"/>
              <use x="147.412109375" xlink:href="#DejaVuSans-2e"/>
              <use x="179.19921875" xlink:href="#DejaVuSans-30"/>
            </g>
          </g>
        </g>
        <g id="ytick_2">
          <g id="line2d_25">
            <path clip-path="url(#pa82c4e93f3)" d="
M 42.5 269.958
L 557.5 269.958" style="fill:none;stroke:#000000;stroke-dasharray:1.000000,3.000000;stroke-dashoffset:0.0;stroke-linecap:butt;stroke-width:0.5;"/>
          </g>
          <g id="line2d_26">
            <g>
              <use style="stroke:#000000;stroke-linecap:butt;stroke-width:1.25;" x="42.5" xlink:href="#m1eb0c910b5" y="269.958333333"/>
            </g>
          </g>
          <g id="line2d_27">
            <g>
              <use style="stroke:#000000;stroke-linecap:butt;stroke-width:1.25;" x="557.5" xlink:href="#mb63a56c30e" y="269.958333333"/>
            </g>
          </g>
          <g id="text_7">
            <!-- −0.5 -->
            <g transform="translate(-0.26 275.782083333)scale(0.16 -0.16)">
              <use xlink:href="#DejaVuSans-2212"/>
              <use x="83.7890625" xlink:href="#DejaVuSans-30"/>
              <use x="147.412109375" xlink:href="#DejaVuSans-2e"/>
              <use x="179.19921875" xlink:href="#DejaVuSans-35"/>
            </g>
          </g>
        </g>
        <g id="ytick_3">
          <g id="line2d_28">
            <path clip-path="url(#pa82c4e93f3)" d="
M 42.5 196
L 557.5 196" style="fill:none;stroke:#000000;stroke-dasharray:3.000000,1.000000;stroke-dashoffset:0.0;stroke-linecap:butt;stroke-width:0.5;"/>
          </g>
          <g id="line2d_29">
            <g>
              <use style="stroke:#000000;stroke-linecap:butt;stroke-width:1.25;" x="42.5" xlink:href="#m1eb0c910b5" y="196.0"/>
            </g>
          </g>
          <g id="line2d_30">
            <g>
              <use style="stroke:#000000;stroke-linecap:butt;stroke-width:1.25;" x="557.5" xlink:href="#mb63a56c30e" y="196.0"/>
            </g>
          </g>
          <g id="text_8">
            <!-- 0.0 -->
            <g transform="translate(12.1725 201.82375)scale(0.16 -0.16)">
              <use xlink:href="#DejaVuSans-30"/>
              <use x="63.623046875" xlink:href="#DejaVuSans-2e"/>
              <use x="95.41015625" xlink:href="#DejaVuSans-30"/>
            </g>
          </g>
        </g>
        <g id="ytick_4">
          <g id="line2d_31">
            <path clip-path="url(#pa82c4e93f3)" d="
M 42.5 122.042
L 557.5 122.042" style="fill:none;stroke:#000000;stroke-dasharray:1.000000,3.000000;stroke-dashoffset:0.0;stroke-linecap:butt;stroke-width:0.5;"/>
          </g>
          <g id="line2d_32">
            <g>
              <use style="stroke:#000000;stroke-linecap:butt;stroke-width:1.25;" x="42.5" xlink:href="#m1eb0c910b5" y="122.041666667"/>
            </g>
          </g>
          <g id="line2d_33">
            <g>
              <use style="stroke:#000000;stroke-linecap:butt;stroke-width:1.25;" x="557.5" xlink:href="#mb63a56c30e" y="122.041666667"/>
            </g>
          </g>
          <g id="text_9">
            <!-- 0.5 -->
            <g transform="translate(12.5075 127.865416667)scale(0.16 -0.16)">
              <use xlink:href="#DejaVuSans-30"/>
              <use x="63.623046875" xlink:href="#DejaVuSans-2e"/>
              <use x="95.41015625" xlink:href="#DejaVuSans-35"/>
            </g>
          </g>
        </g>
        <g id="ytick_5">
          <g id="line2d_34">
            <path clip-path="url(#pa82c4e93f3)" d="
M 42.5 48.0833
L 557.5 48.0833" style="fill:none;stroke:#000000;stroke-dasharray:1.000000,3.000000;stroke-dashoffset:0.0;stroke-linecap:butt;stroke-width:0.5;"/>
          </g>
          <g id="line2d_35">
            <g>
              <use style="stroke:#000000;stroke-linecap:butt;stroke-width:1.25;" x="42.5" xlink:href="#m1eb0c910b5" y="48.0833333333"/>
            </g>
          </g>
          <g id="line2d_36">
            <g>
              <use style="stroke:#000000;stroke-linecap:butt;stroke-width:1.25;" x="557.5" xlink:href="#mb63a56c30e" y="48.0833333333"/>
            </g>
          </g>
          <g id="text_10">
            <!-- 1.0 -->
            <g transform="translate(12.875 53.9070833333)scale(0.16 -0.16)">
              <use xlink:href="#DejaVuSans-31"/>
              <use x="63.623046875" xlink:href="#DejaVuSans-2e"/>
              <use x="95.41015625" xlink:href="#DejaVuSans-30"/>
            </g>
          </g>
        </g>
      </g>
      <g id="patch_3">
        <path d="
M 42.5 18.5
L 557.5 18.5" style="fill:none;stroke:#000000;stroke-width:1.25;"/>
      </g>
      <g id="patch_4">
        <path d="
M 557.5 373.5
L 557.5 18.5" style="fill:none;stroke:#000000;stroke-width:1.25;"/>
      </g>
      <g id="patch_5">
        <path d="
M 42.5 373.5
L 557.5 373.5" style="fill:none;stroke:#000000;stroke-width:1.25;"/>
      </g>
      <g id="patch_6">
        <path d="
M 42.5 373.5
L 42.5 18.5" style="fill:none;stroke:#000000;stroke-width:1.25;"/>
      </g>
      <g id="legend_1">
        <g id="patch_7">
          <path d="
M 148.318 354.3
L 451.681 354.3
L 451.681 295.956
L 148.318 295.956
L 148.318 354.3
z 
" style="fill:#ffffff;opacity:0.9;stroke:#000000;"/>
        </g>
        <g id="line2d_37">
          <path d="
M 161.758 311.505
L 188.638 311.505" style="fill:none;stroke:#0000cc;stroke-width:2.4;"/>
        </g>
        <g id="line2d_38"/>
        <g id="text_11">
          <!-- P₀ -->
          <defs>
            <path d="
M 27.8281 32.6719
Q 25.3906 36.875 20.4531 36.875
Q 15.5312 36.875 13.0938 32.6719
Q 10.5938 28.4688 10.5938 20.0781
Q 10.5938 11.625 13.0938 7.4375
Q 15.5312 3.23438 20.4531 3.23438
Q 25.3906 3.23438 27.8281 7.4375
Q 30.3281 11.625 30.3281 20.0781
Q 30.3281 28.4688 27.8281 32.6719
z 

M 20.4531 41.2188
Q 28.3281 41.2188 32.4688 35.7969
Q 36.625 30.375 36.625 20.0781
Q 36.625 9.71875 32.4688 4.29688
Q 28.3281 -1.10938 20.4531 -1.10938
Q 12.5469 -1.10938 8.39062 4.29688
Q 4.25 9.71875 4.25 20.0781
Q 4.25 30.375 8.39062 35.7969
Q 12.5469 41.2188 20.4531 41.2188" id="DejaVuSans-2080"/>
            <path d="
M 19.6719 64.7969
L 19.6719 37.4062
L 32.0781 37.4062
Q 38.9688 37.4062 42.7188 40.9688
Q 46.4844 44.5312 46.4844 51.125
Q 46.4844 57.6719 42.7188 61.2344
Q 38.9688 64.7969 32.0781 64.7969
z 

M 9.8125 72.9062
L 32.0781 72.9062
Q 44.3438 72.9062 50.6094 67.3594
Q 56.8906 61.8125 56.8906 51.125
Q 56.8906 40.3281 50.6094 34.8125
Q 44.3438 29.2969 32.0781 29.2969
L 19.6719 29.2969
L 19.6719 0
L 9.8125 0
z 
" id="DejaVuSans-50"/>
          </defs>
          <g transform="translate(209.7585 318.225)scale(0.192 -0.192)">
            <use xlink:href="#DejaVuSans-50"/>
            <use x="60.302734375" xlink:href="#DejaVuSans-2080"/>
          </g>
        </g>
        <g id="line2d_39">
          <path d="
M 161.758 339.687
L 188.638 339.687" style="fill:none;stroke:#dd00aa;stroke-width:2.4;"/>
        </g>
        <g id="line2d_40"/>
        <g id="text_12">
          <!-- P₁ -->
          <defs>
            <path d="
M 7.625 4.98438
L 17.5781 4.98438
L 17.5781 34.8281
L 6.6875 32.8281
L 6.6875 38.4844
L 17.9219 40.3906
L 24.6094 40.3906
L 24.6094 4.98438
L 34.625 4.98438
L 34.625 -0.375
L 7.625 -0.375
z 
" id="DejaVuSans-2081"/>
          </defs>
          <g transform="translate(209.7585 346.407)scale(0.192 -0.192)">
            <use xlink:href="#DejaVuSans-50"/>
            <use x="60.302734375" xlink:href="#DejaVuSans-2081"/>
          </g>
        </g>
        <g id="line2d_41">
          <path d="
M 270.643 311.505
L 297.523 311.505" style="fill:none;stroke:#bbbb00;stroke-width:2.4;"/>
        </g>
        <g id="line2d_42"/>
        <g id="text_13">
          <!-- P₂ -->
          <defs>
            <path d="
M 13.0938 5.1875
L 33.7969 5.1875
L 33.7969 -0.375
L 4.59375 -0.375
L 4.59375 4.98438
Q 6.25 6.5 9.32812 9.23438
Q 26.125 24.125 26.125 28.7188
Q 26.125 31.9375 23.5781 33.9062
Q 21.0469 35.8906 16.8906 35.8906
Q 14.3594 35.8906 11.375 35.0312
Q 8.40625 34.1875 4.89062 32.4844
L 4.89062 38.4844
Q 8.64062 39.8594 11.8906 40.5312
Q 15.1406 41.2188 17.9219 41.2188
Q 25 41.2188 29.25 38
Q 33.5 34.7812 33.5 29.5
Q 33.5 22.7188 17.3281 8.84375
Q 14.5938 6.5 13.0938 5.1875" id="DejaVuSans-2082"/>
          </defs>
          <g transform="translate(318.6435 318.225)scale(0.192 -0.192)">
            <use xlink:href="#DejaVuSans-50"/>
            <use x="60.302734375" xlink:href="#DejaVuSans-2082"/>
          </g>
        </g>
        <g id="line2d_43">
          <path d="
M 270.643 339.687
L 297.523 339.687" style="fill:none;stroke:#00bb00;stroke-width:2.4;"/>
        </g>
        <g id="line2d_44"/>
        <g id="text_14">
          <!-- P₃ -->
          <defs>
            <path d="
M 25.5938 21.6875
Q 30.0781 20.8125 32.5469 18.1406
Q 35.0156 15.4844 35.0156 11.4844
Q 35.0156 5.42188 30.375 2.15625
Q 25.7344 -1.10938 17.0938 -1.10938
Q 14.3125 -1.10938 11.25 -0.59375
Q 8.20312 -0.09375 4.78125 0.890625
L 4.78125 6.79688
Q 7.32812 5.48438 10.2344 4.84375
Q 13.1406 4.20312 16.4062 4.20312
Q 21.7344 4.20312 24.6562 6.125
Q 27.5938 8.0625 27.5938 11.4844
Q 27.5938 15.0938 24.875 16.9531
Q 22.1719 18.8125 16.8906 18.8125
L 12.7031 18.8125
L 12.7031 24.0781
L 17.2812 24.0781
Q 21.875 24.0781 24.2344 25.6094
Q 26.6094 27.1562 26.6094 30.0938
Q 26.6094 32.9219 24.1719 34.4062
Q 21.7344 35.8906 17.0938 35.8906
Q 15.1406 35.8906 12.6406 35.4531
Q 10.1562 35.0156 6.20312 33.8906
L 6.20312 39.5156
Q 9.76562 40.3438 12.8906 40.7812
Q 16.0156 41.2188 18.7031 41.2188
Q 25.7344 41.2188 29.8594 38.3281
Q 33.9844 35.4531 33.9844 30.625
Q 33.9844 27.25 31.7812 24.9062
Q 29.5938 22.5625 25.5938 21.6875" id="DejaVuSans-2083"/>
          </defs>
          <g transform="translate(318.6435 346.407)scale(0.192 -0.192)">
            <use xlink:href="#DejaVuSans-50"/>
            <use x="60.302734375" xlink:href="#DejaVuSans-2083"/>
          </g>
        </g>
        <g id="line2d_45">
          <path d="
M 379.219 311.505
L 406.099 311.505" style="fill:none;stroke:#00bbcc;stroke-width:2.4;"/>
        </g>
        <g id="line2d_46"/>
        <g id="text_15">
          <!-- P₄ -->
          <defs>
            <path d="
M 23.2969 34.4844
L 8.20312 14.0156
L 23.2969 14.0156
z 

M 22.2188 40.3906
L 30.3281 40.3906
L 30.3281 14.0156
L 36.9219 14.0156
L 36.9219 8.70312
L 30.3281 8.70312
L 30.3281 -0.375
L 23.2969 -0.375
L 23.2969 8.70312
L 3.07812 8.70312
L 3.07812 14.6094
z 
" id="DejaVuSans-2084"/>
          </defs>
          <g transform="translate(427.2195 318.225)scale(0.192 -0.192)">
            <use xlink:href="#DejaVuSans-50"/>
            <use x="60.302734375" xlink:href="#DejaVuSans-2084"/>
          </g>
        </g>
        <g id="line2d_47">
          <path d="
M 379.219 339.687
L 406.099 339.687" style="fill:none;stroke:#dd4400;stroke-width:2.4;"/>
        </g>
        <g id="line2d_48"/>
        <g id="text_16">
          <!-- P₅ -->
          <defs>
            <path d="
M 6.9375 40.3906
L 31.8438 40.3906
L 31.8438 35.75
L 12.75 35.75
L 12.75 25.7969
Q 14.1094 26.2344 15.5312 26.4219
Q 16.8906 26.625 18.2656 26.625
Q 26.125 26.625 30.7188 22.8594
Q 35.2969 19.1562 35.2969 12.75
Q 35.2969 6.15625 30.5625 2.5
Q 25.875 -1.10938 17.2812 -1.10938
Q 14.3594 -1.10938 11.2812 -0.671875
Q 8.20312 -0.234375 4.98438 0.640625
L 4.98438 6.15625
Q 7.76562 4.84375 10.7969 4.15625
Q 13.8125 3.53125 17.1875 3.53125
Q 22.6094 3.53125 25.7812 6.01562
Q 28.9531 8.5 28.9531 12.75
Q 28.9531 17 25.7812 19.4844
Q 22.6094 21.9844 17.1875 21.9844
Q 14.6562 21.9844 12.1094 21.4844
Q 9.57812 21 6.9375 19.9844
z 
" id="DejaVuSans-2085"/>
          </defs>
          <g transform="translate(427.2195 346.407)scale(0.192 -0.192)">
            <use xlink:href="#DejaVuSans-50"/>
            <use x="60.302734375" xlink:href="#DejaVuSans-2085"/>
          </g>
        </g>
      </g>
    </g>
  </g>
</svg>
